<svg xmlns="http://www.w3.org/2000/svg" width="558" height="447" viewBox="0 0 558 447">
<g>
<path d="M 377.50 217.02 C353.71,225.69 341.21,229.59 339.45,228.90 C338.38,228.48 335.92,228.11 334.00,228.08 C332.08,228.05 324.42,227.12 317.00,226.01 C294.14,222.60 253.77,218.03 237.23,216.97 C218.26,215.77 213.00,215.14 213.00,214.07 C213.00,213.23 216.12,212.36 229.50,209.49 C233.90,208.54 238.06,207.61 238.75,207.42 C240.43,206.94 240.35,200.47 238.61,197.15 C237.84,195.69 234.58,187.77 231.36,179.55 C228.14,171.32 225.36,164.26 225.19,163.85 C224.84,163.04 228.53,161.94 243.50,158.40 C249.00,157.10 257.77,154.90 263.00,153.52 C268.23,152.13 274.25,150.77 276.38,150.49 L 280.26 149.99 L 279.70 153.49 C279.23,156.33 279.64,157.60 281.81,160.18 C283.28,161.94 284.35,164.20 284.18,165.21 C284.01,166.22 284.76,168.50 285.85,170.27 C287.12,172.34 287.64,174.48 287.30,176.24 C286.88,178.42 287.41,179.54 289.89,181.71 C291.62,183.24 293.00,185.43 293.00,186.68 C293.00,188.46 293.75,189.05 296.68,189.60 C300.56,190.33 303.14,189.80 322.00,184.45 C331.91,181.63 334.19,181.31 338.50,182.08 C341.25,182.58 349.12,183.85 356.00,184.92 C383.66,189.22 407.95,195.83 409.34,199.44 C409.63,200.20 409.11,201.45 408.18,202.24 C404.09,205.70 390.22,212.39 377.50,217.02 ZM 338.43 322.85 C331.72,324.89 329.44,325.18 326.00,324.45 C319.96,323.15 260.95,315.27 252.00,314.56 C239.29,313.55 221.67,311.90 218.22,311.39 C213.60,310.70 215.02,309.38 221.23,308.59 C228.49,307.66 254.24,301.16 255.45,299.95 C256.10,299.30 255.86,297.85 254.75,295.73 C252.54,291.48 240.00,259.62 240.00,258.24 C240.00,257.66 241.91,256.86 244.25,256.48 C246.59,256.10 252.32,254.68 257.00,253.33 C261.67,251.97 267.97,250.45 270.99,249.95 C274.02,249.44 280.09,247.94 284.49,246.61 C296.76,242.91 298.90,242.67 298.72,245.04 C298.64,246.12 298.22,247.00 297.79,247.00 C296.39,247.00 297.44,249.40 299.64,251.21 C300.81,252.18 302.07,254.15 302.43,255.58 C302.79,257.02 303.96,259.39 305.03,260.85 C306.10,262.31 307.44,265.95 308.00,268.93 C308.56,271.92 309.86,275.15 310.88,276.10 C311.98,277.13 312.63,278.89 312.46,280.42 C312.19,282.84 312.45,283.00 316.48,283.00 C318.85,283.00 324.32,282.26 328.64,281.36 C335.37,279.95 337.79,279.89 345.50,280.92 C365.22,283.55 399.00,293.11 399.00,296.05 C399.00,298.45 397.25,300.19 392.16,302.83 C383.62,307.27 356.94,317.21 338.43,322.85 ZM 343.25 126.07 C336.54,129.27 332.94,131.06 329.14,131.73 C324.41,132.56 319.38,131.65 307.70,129.55 C307.15,129.45 306.58,129.35 306.00,129.24 C299.67,128.11 290.90,126.87 286.50,126.51 C282.10,126.14 269.85,124.97 259.27,123.92 C248.70,122.86 237.79,122.00 235.02,122.00 C229.86,122.00 228.88,121.17 231.50,119.00 C233.39,117.43 233.41,113.92 231.56,109.49 C230.77,107.59 230.46,105.83 230.88,105.58 C232.18,104.77 246.38,101.00 248.10,101.00 C249.19,101.00 250.16,102.50 250.99,105.48 C252.62,111.29 254.04,112.40 258.74,111.53 C263.06,110.74 273.02,107.67 280.94,104.69 L 286.39 102.65 L 303.94 104.97 C326.26,107.92 332.09,109.15 339.50,112.51 C345.95,115.43 352.00,119.54 352.00,121.00 C352.00,121.50 348.06,123.78 343.25,126.07 ZM 300.50 365.57 C294.45,366.93 288.83,368.24 288.00,368.49 C285.02,369.41 284.60,368.59 276.84,346.69 C275.71,343.50 274.94,340.73 275.14,340.54 C275.52,340.17 293.32,335.54 306.21,332.46 C313.70,330.67 313.98,330.67 315.96,332.46 C317.08,333.48 318.00,335.08 318.00,336.03 C318.00,336.98 319.08,340.20 320.41,343.19 C321.73,346.18 322.97,349.73 323.16,351.07 C323.35,352.40 324.40,353.96 325.50,354.53 C326.60,355.10 327.50,356.17 327.50,356.92 C327.50,358.49 316.82,361.92 300.50,365.57 ZM 269.80 75.03 C255.90,85.10 237.97,67.82 247.60,53.64 C250.57,49.26 255.14,47.00 261.00,47.00 C270.74,47.00 275.99,52.36 276.00,62.32 C276.00,69.35 275.11,71.18 269.80,75.03 ZM 211.75 91.04 C208.31,92.67 204.96,94.00 204.31,94.00 C202.17,94.00 201.77,91.92 203.53,89.97 C205.17,88.15 205.07,87.62 201.38,78.58 C198.11,70.60 197.12,69.05 195.08,68.80 C190.86,68.28 191.74,66.34 197.21,64.14 C207.15,60.14 211.80,60.34 207.56,64.59 C205.96,66.18 207.03,70.95 209.44,72.95 C211.38,74.56 218.00,71.53 218.00,69.03 C218.00,65.76 215.83,62.12 213.69,61.80 C207.85,60.94 214.09,56.15 223.25,54.47 C227.25,53.73 227.78,54.39 225.55,57.33 C224.33,58.94 224.62,60.27 227.97,68.33 C230.94,75.48 232.26,77.57 233.95,77.83 C237.81,78.41 235.70,80.96 228.68,84.22 C223.03,86.83 221.70,87.14 220.98,85.96 C220.42,85.05 220.62,83.97 221.55,82.94 C223.47,80.82 223.38,78.69 221.25,76.08 C219.54,74.00 219.40,73.99 215.25,75.62 C212.68,76.64 211.00,77.95 211.00,78.93 C211.00,81.49 213.92,85.00 216.06,85.00 C220.12,85.00 217.88,88.14 211.75,91.04 ZM 302.00 76.62 C302.00,77.54 300.90,77.96 298.75,77.87 C294.10,77.70 287.71,76.56 286.25,75.66 C284.58,74.62 284.66,73.00 286.38,73.00 C288.83,73.00 289.77,70.67 291.08,61.28 C292.29,52.69 292.25,51.93 290.53,50.03 C289.51,48.91 288.99,47.68 289.37,47.30 C290.72,45.94 313.12,49.70 315.88,51.75 C319.97,54.79 320.02,61.98 315.97,66.03 C314.36,67.64 312.63,68.00 306.50,68.00 C299.27,68.00 299.00,68.09 299.00,70.38 C299.00,71.69 299.67,73.32 300.50,74.00 C301.33,74.68 302.00,75.86 302.00,76.62 ZM 351.79 92.75 C350.47,94.34 350.45,94.34 344.50,91.47 C341.75,90.14 336.01,87.65 331.75,85.93 C324.37,82.96 321.49,80.00 325.99,80.00 C327.40,80.00 328.81,78.35 330.87,74.25 C334.96,66.14 336.19,61.27 334.72,58.93 C333.85,57.54 333.84,56.76 334.68,55.92 C335.51,55.09 337.83,55.70 343.65,58.28 C347.97,60.20 353.65,62.56 356.28,63.53 C358.91,64.50 361.27,65.63 361.52,66.03 C361.77,66.44 361.37,68.51 360.64,70.63 C359.72,73.30 358.71,74.50 357.40,74.50 C355.87,74.50 355.56,73.88 355.81,71.30 C356.08,68.45 355.67,67.87 352.10,66.05 C346.60,63.25 345.64,63.43 343.60,67.70 C341.92,71.24 341.92,71.47 343.60,72.70 C345.05,73.76 345.65,73.72 347.01,72.49 C348.75,70.92 351.04,70.48 350.94,71.75 C350.79,73.71 346.38,81.42 345.50,81.28 C344.95,81.19 344.26,80.08 343.96,78.81 C343.10,75.19 340.60,75.51 338.70,79.50 C337.77,81.46 337.00,83.30 337.00,83.58 C337.00,84.49 345.42,87.96 347.68,87.98 C349.00,87.99 350.12,87.21 350.50,86.00 C350.85,84.90 351.83,84.00 352.68,84.00 C353.92,84.00 354.09,84.73 353.52,87.75 C353.14,89.81 352.36,92.06 351.79,92.75 ZM 180.50 268.57 C165.96,270.47 146.78,271.50 145.75,270.44 C144.10,268.74 145.11,265.91 147.75,264.82 C150.97,263.50 195.50,262.38 199.72,263.52 C202.36,264.23 202.25,264.33 197.50,265.63 C194.75,266.39 187.10,267.71 180.50,268.57 ZM 257.62 73.14 C259.92,75.68 262.62,75.48 265.55,72.55 C267.59,70.50 268.00,69.12 268.00,64.30 C268.00,60.78 267.31,57.12 266.25,55.00 C264.79,52.09 263.89,51.45 260.85,51.20 C257.97,50.96 256.85,51.38 255.60,53.17 C252.73,57.25 253.93,69.06 257.62,73.14 ZM 269.76 282.43 C270.05,282.72 271.99,282.01 274.06,280.84 L 277.83 278.72 L 280.53 280.85 C283.61,283.27 285.50,282.81 284.00,280.01 C282.24,276.72 282.91,274.21 286.25,271.58 L 289.50 269.02 L 285.17 269.01 C281.05,269.00 280.76,268.81 279.27,265.00 C277.43,260.31 276.29,259.94 275.38,263.75 C274.39,267.91 273.10,269.00 269.19,269.00 L 265.63 269.00 L 268.49 271.98 C271.10,274.71 271.25,275.27 270.28,278.43 C269.70,280.33 269.46,282.13 269.76,282.43 ZM 184.25 170.43 C173.83,172.13 161.48,172.87 158.00,172.00 L 155.50 171.38 L 157.69 170.19 C162.24,167.71 195.00,165.79 195.00,168.00 C195.00,168.55 194.55,169.00 194.00,169.00 C193.45,169.00 189.06,169.64 184.25,170.43 ZM 302.25 63.33 C307.19,65.28 312.49,57.89 308.80,54.20 C307.06,52.46 302.32,52.71 301.61,54.58 C300.55,57.34 300.95,62.81 302.25,63.33 Z" fill="rgb(19,37,98)"/>
<path d="M 377.50 217.02 C390.22,212.39 404.09,205.70 408.18,202.24 C409.11,201.45 409.63,200.20 409.34,199.44 C409.05,198.70 407.79,197.82 405.71,196.86 L 410.50 198.70 L 411.76 205.60 C413.76,216.56 414.58,245.55 412.97,248.55 C412.25,249.91 408.97,252.36 405.70,253.99 C402.42,255.63 399.21,257.41 398.57,257.94 C396.83,259.39 371.31,269.00 369.21,269.00 C368.21,269.00 366.97,269.40 366.45,269.89 C365.46,270.82 356.60,273.81 346.75,276.54 C339.34,278.60 338.74,279.60 346.48,281.05 C346.15,281.01 345.82,280.96 345.50,280.92 C337.79,279.89 335.37,279.95 328.64,281.36 C324.32,282.26 318.85,283.00 316.48,283.00 C312.45,283.00 312.19,282.84 312.46,280.42 C312.63,278.89 311.98,277.13 310.88,276.10 C309.86,275.15 308.56,271.92 308.00,268.93 C307.44,265.95 306.10,262.31 305.03,260.85 C303.96,259.39 302.79,257.02 302.43,255.58 C302.07,254.15 300.81,252.18 299.64,251.21 C297.44,249.40 296.39,247.00 297.79,247.00 C298.22,247.00 298.64,246.12 298.72,245.04 C298.90,242.67 296.76,242.91 284.49,246.61 C283.28,246.98 281.94,247.36 280.57,247.72 C284.83,246.53 289.37,245.05 291.50,244.08 C292.60,243.58 295.30,242.71 297.50,242.15 C312.89,238.21 336.16,231.14 337.31,230.05 C338.56,228.87 303.25,223.85 272.04,220.30 C287.84,222.07 304.88,224.20 317.00,226.01 C324.42,227.12 332.08,228.05 334.00,228.08 C335.92,228.11 338.38,228.48 339.45,228.90 C341.21,229.59 353.71,225.69 377.50,217.02 ZM 343.25 126.07 C348.06,123.78 352.00,121.50 352.00,121.00 C352.00,119.58 346.29,115.66 340.05,112.76 C346.57,115.46 352.40,119.16 359.91,124.76 C371.91,133.71 389.00,152.10 389.00,156.06 C389.00,157.47 378.52,164.02 371.00,167.32 C364.58,170.13 359.37,172.08 343.23,177.68 L 334.97 180.55 L 339.23 181.78 C341.11,182.33 346.30,183.34 351.82,184.27 C346.19,183.38 340.70,182.48 338.50,182.08 C334.19,181.31 331.91,181.63 322.00,184.45 C303.14,189.80 300.56,190.33 296.68,189.60 C293.75,189.05 293.00,188.46 293.00,186.68 C293.00,185.43 291.62,183.24 289.89,181.71 C287.41,179.54 286.88,178.42 287.30,176.24 C287.64,174.48 287.12,172.34 285.85,170.27 C284.76,168.50 284.01,166.22 284.18,165.21 C284.35,164.20 283.28,161.94 281.81,160.18 C279.64,157.60 279.23,156.33 279.70,153.49 L 280.26 149.99 L 276.38 150.49 C274.36,150.76 268.88,151.99 263.87,153.29 C268.07,152.13 271.01,151.19 272.50,150.53 C274.15,149.80 278.20,148.46 281.50,147.55 C290.78,145.00 309.75,139.01 317.38,136.23 C322.09,134.51 323.81,133.47 322.84,132.93 C321.93,132.42 318.69,131.61 314.41,130.74 C321.54,131.96 325.43,132.38 329.14,131.73 C332.94,131.06 336.54,129.27 343.25,126.07 ZM 338.43 322.85 C356.94,317.21 383.62,307.27 392.16,302.83 C396.77,300.44 398.64,298.78 398.95,296.71 C398.98,296.83 399.00,296.94 399.00,297.05 C399.00,299.16 388.39,315.27 383.50,320.59 C382.95,321.18 380.70,323.79 378.50,326.37 C374.15,331.47 359.90,343.92 353.50,348.22 C348.67,351.46 332.27,357.22 315.60,361.82 C323.09,359.71 327.50,357.93 327.50,356.92 C327.50,356.17 326.60,355.10 325.50,354.53 C324.40,353.96 323.35,352.40 323.16,351.07 C322.97,349.73 321.73,346.18 320.41,343.19 C319.08,340.20 318.00,336.98 318.00,336.03 C318.00,335.08 317.08,333.48 315.96,332.46 C313.98,330.67 313.70,330.67 306.21,332.46 C305.73,332.58 305.25,332.69 304.75,332.81 C304.84,332.77 304.92,332.73 305.00,332.69 C308.62,330.80 316.96,328.19 321.83,327.41 C324.15,327.04 326.25,326.41 326.50,326.01 C326.86,325.42 319.64,323.61 312.71,322.39 C319.45,323.35 324.46,324.12 326.00,324.45 C329.44,325.18 331.72,324.89 338.43,322.85 ZM 374.00 254.72 C374.00,255.30 376.20,253.96 378.50,251.97 C379.60,251.02 381.84,249.56 383.47,248.73 C386.32,247.28 386.65,247.35 391.83,250.67 C394.79,252.56 397.46,253.87 397.76,253.57 C398.07,253.27 397.57,250.72 396.66,247.90 C395.74,245.08 395.00,242.20 395.00,241.51 C395.00,240.82 397.24,238.73 399.97,236.87 C406.79,232.25 406.50,231.00 398.62,231.00 C391.50,231.00 391.11,230.72 388.50,223.73 C387.51,221.10 386.45,219.22 386.13,219.54 C385.81,219.85 384.61,222.45 383.47,225.31 L 381.38 230.50 L 374.69 230.80 C370.27,230.99 368.02,231.50 368.05,232.30 C368.07,232.96 370.32,235.07 373.04,237.00 C375.75,238.93 377.98,240.99 377.99,241.59 C378.00,242.19 377.10,245.30 376.00,248.50 C374.90,251.70 374.00,254.49 374.00,254.72 ZM 309.65 105.74 C307.88,105.49 305.98,105.24 303.94,104.97 L 286.39 102.65 L 280.94 104.69 C273.02,107.67 263.06,110.74 258.74,111.53 C254.04,112.40 252.62,111.29 250.99,105.48 C250.16,102.50 249.19,101.00 248.10,101.00 C246.38,101.00 232.18,104.77 230.88,105.58 C232.46,104.59 246.80,100.75 253.50,99.50 C264.17,97.52 277.04,96.70 284.91,97.49 C292.12,98.22 293.80,99.23 289.75,100.43 L 287.50 101.10 L 290.00 102.16 C291.29,102.71 299.93,104.27 309.65,105.74 ZM 321.61 265.29 L 320.94 268.08 L 323.91 266.55 C325.54,265.70 327.15,264.56 327.50,264.01 C328.53,262.33 330.69,262.86 333.97,265.62 C335.68,267.07 337.30,268.04 337.55,267.78 C337.81,267.52 337.32,265.33 336.46,262.91 C335.01,258.83 335.02,258.42 336.59,257.50 C337.52,256.95 339.46,255.50 340.89,254.28 L 343.50 252.06 L 338.87 252.03 C333.91,252.00 332.82,251.19 331.30,246.50 C330.04,242.59 328.83,242.97 327.51,247.69 C326.47,251.41 326.31,251.51 321.03,252.00 L 315.61 252.50 L 319.81 255.26 C324.36,258.27 324.41,258.34 323.14,260.82 C322.66,261.74 321.98,263.76 321.61,265.29 ZM 393.18 292.72 C384.42,289.35 367.41,284.78 353.49,282.21 C364.88,284.10 386.23,289.69 392.75,292.54 C392.89,292.60 393.04,292.66 393.18,292.72 ZM 296.33 334.88 C285.74,337.53 275.43,340.26 275.14,340.54 C275.62,340.07 289.06,336.56 296.33,334.88 ZM 397.74 193.95 C389.42,191.37 377.36,188.58 363.99,186.24 C377.58,188.58 389.53,191.31 397.74,193.95 ZM 279.05 125.83 C282.27,126.13 284.90,126.37 286.50,126.51 C288.87,126.70 292.51,127.15 296.35,127.70 C294.46,127.45 292.65,127.23 291.00,127.06 C286.85,126.62 282.86,126.22 279.05,125.83 ZM 300.50 365.57 C304.24,364.73 307.68,363.91 310.77,363.11 C306.75,364.16 302.78,365.13 299.02,365.95 C296.32,366.53 293.69,367.12 291.66,367.59 C294.00,367.04 297.19,366.31 300.50,365.57 ZM 282.90 318.33 C288.70,319.09 294.69,319.90 300.30,320.66 C295.70,320.06 289.39,319.21 282.90,318.33 ZM 273.23 249.51 C272.38,249.69 271.62,249.84 270.99,249.95 C270.49,250.03 269.89,250.14 269.22,250.28 C270.66,249.96 271.83,249.73 272.56,249.62 C272.77,249.59 272.99,249.55 273.23,249.51 ZM 239.56 122.22 C243.46,122.48 249.12,122.95 255.03,123.51 C248.40,122.90 243.14,122.46 239.56,122.22 ZM 247.14 255.89 C245.95,256.16 244.95,256.37 244.25,256.48 C243.20,256.65 242.23,256.91 241.49,257.19 C242.23,256.91 243.20,256.65 244.25,256.48 C244.92,256.37 245.92,256.17 247.14,255.89 ZM 235.00 122.00 C231.60,122.00 230.02,121.64 230.10,120.76 C230.02,121.64 231.60,122.00 235.02,122.00 C235.13,122.00 235.26,122.00 235.39,122.00 C235.25,122.00 235.12,122.00 235.00,122.00 Z" fill="rgb(60,100,160)"/>
<path d="M 180.50 268.57 C187.10,267.71 194.75,266.39 197.50,265.63 C202.25,264.33 202.36,264.23 199.72,263.52 C198.98,263.32 197.02,263.19 194.27,263.12 C209.21,262.84 214.17,262.33 221.23,260.88 C226.88,259.72 235.77,257.98 241.00,257.02 C244.40,256.40 249.12,255.37 253.37,254.34 C251.14,254.93 248.93,255.49 247.14,255.89 C245.92,256.17 244.92,256.37 244.25,256.48 C243.20,256.65 242.23,256.91 241.49,257.19 C240.58,257.54 240.00,257.92 240.00,258.24 C240.00,259.62 252.54,291.48 254.75,295.73 C255.86,297.85 256.10,299.30 255.45,299.95 C254.24,301.16 228.49,307.66 221.23,308.59 C215.02,309.38 213.60,310.70 218.22,311.39 C219.49,311.57 222.67,311.92 226.83,312.32 C225.26,312.18 223.80,312.04 222.51,311.92 C212.45,310.96 208.98,311.03 201.01,312.34 C190.15,314.11 171.20,315.34 167.78,314.48 C166.52,314.16 164.71,312.69 163.77,311.20 C162.83,309.72 161.61,307.83 161.06,307.00 C154.45,297.03 145.24,275.20 145.00,269.05 C145.11,269.55 145.35,270.03 145.75,270.44 C146.78,271.50 165.96,270.47 180.50,268.57 ZM 184.25 170.43 C189.06,169.64 193.45,169.00 194.00,169.00 C194.55,169.00 195.00,168.55 195.00,168.00 C195.00,167.32 191.89,167.03 187.46,167.03 C188.48,167.01 189.49,167.00 190.50,167.00 C201.02,166.97 215.46,165.26 221.50,163.33 C222.60,162.98 224.44,162.58 225.59,162.45 C226.72,162.32 229.07,161.85 232.19,161.16 C226.55,162.62 224.95,163.30 225.19,163.85 C225.36,164.26 228.14,171.32 231.36,179.55 C234.58,187.77 237.84,195.69 238.61,197.15 C240.35,200.47 240.43,206.94 238.75,207.42 C238.06,207.61 233.90,208.54 229.50,209.49 C216.12,212.36 213.00,213.23 213.00,214.07 C213.00,214.71 214.91,215.20 220.58,215.74 C215.38,215.42 211.59,215.28 207.81,215.42 C200.27,215.71 192.77,217.15 174.18,220.56 C159.27,223.29 145.44,223.77 142.53,221.65 C140.38,220.07 140.65,216.52 144.04,202.26 C146.40,192.36 146.95,190.72 151.71,179.38 C153.39,175.39 154.69,172.92 155.93,171.49 L 158.00 172.00 C161.48,172.87 173.83,172.13 184.25,170.43 ZM 286.45 368.68 C269.36,372.13 262.50,371.64 244.00,367.00 C231.89,363.97 221.21,359.84 212.02,354.63 L 206.50 351.50 L 214.23 350.80 C218.48,350.41 224.33,349.62 227.23,349.03 C230.13,348.44 235.43,347.49 239.00,346.92 C242.57,346.35 251.15,344.56 258.05,342.94 C264.95,341.32 271.88,340.00 273.43,340.00 C274.87,340.00 280.45,338.85 286.23,337.37 C280.60,338.82 275.43,340.25 275.14,340.54 C274.94,340.73 275.71,343.50 276.84,346.69 C283.05,364.22 284.56,368.24 286.45,368.68 ZM 375.77 380.00 C371.34,382.70 367.17,382.51 363.25,379.42 C360.31,377.10 360.00,376.35 360.00,371.52 C360.00,366.78 360.35,365.88 363.08,363.59 C367.47,359.89 373.65,359.98 377.30,363.79 C382.42,369.14 381.74,376.36 375.77,380.00 ZM 216.80 396.80 C215.07,398.53 212.57,398.28 209.90,396.12 C207.77,394.40 207.68,393.95 208.76,390.41 C209.67,387.46 209.67,386.41 208.75,385.85 C206.71,384.58 204.78,387.13 205.40,390.27 C205.96,393.07 205.89,393.14 202.74,392.46 C198.29,391.50 196.00,390.18 196.00,388.57 C196.00,387.83 196.62,386.98 197.37,386.69 C199.70,385.80 204.17,376.80 203.53,374.28 C202.75,371.15 205.00,371.29 212.50,374.84 C221.90,379.30 223.29,382.52 217.49,386.46 C215.02,388.15 214.55,389.07 214.82,391.82 C215.08,394.56 215.38,394.93 216.57,393.94 C217.70,393.01 218.00,393.06 218.00,394.18 C218.00,394.96 217.46,396.14 216.80,396.80 ZM 230.84 105.60 C230.48,105.94 230.79,107.65 231.56,109.49 C233.41,113.92 233.39,117.43 231.50,119.00 C230.68,119.68 230.22,120.23 230.12,120.66 C230.11,120.69 230.10,120.73 230.10,120.76 C230.07,121.09 230.27,121.34 230.69,121.53 C221.37,120.97 217.87,121.35 212.79,122.40 C204.07,124.21 198.00,124.47 198.00,123.03 C198.00,121.77 206.65,116.26 216.03,111.55 C220.41,109.36 224.51,107.67 230.84,105.60 ZM 142.80 318.66 C141.32,318.27 138.22,319.40 133.33,322.09 L 126.06 326.10 L 125.45 323.66 C125.07,322.13 125.76,318.92 127.30,315.10 C130.15,308.05 129.06,307.09 123.97,312.18 L 120.79 315.37 L 118.92 312.93 C116.20,309.40 116.55,308.19 120.25,308.29 C124.00,308.39 133.00,303.53 133.00,301.40 C133.00,299.23 134.60,299.74 136.40,302.49 C137.95,304.85 137.91,305.25 135.65,309.74 C134.33,312.36 132.94,315.52 132.56,316.76 L 131.86 319.01 L 135.43 316.91 C137.39,315.75 139.00,314.20 139.00,313.46 C139.00,310.65 141.05,311.03 142.98,314.20 C145.56,318.43 145.52,319.37 142.80,318.66 ZM 400.45 360.45 C399.05,361.85 397.73,363.00 397.51,363.00 C396.69,363.00 395.90,360.96 396.41,360.15 C397.25,358.79 388.06,349.76 386.47,350.37 C383.93,351.35 383.71,348.84 386.13,346.51 C388.37,344.35 388.85,344.28 394.73,345.30 C398.16,345.89 401.24,346.10 401.58,345.76 C402.97,344.36 398.46,340.06 395.56,340.03 L 392.63 340.00 L 395.50 337.00 C398.88,333.47 400.00,333.24 400.00,336.06 C400.00,337.27 402.34,340.36 405.63,343.50 C409.70,347.37 411.08,349.34 410.61,350.58 C410.03,352.07 408.95,352.20 401.76,351.60 L 393.57 350.92 L 395.96 353.46 C397.27,354.86 399.40,356.00 400.67,356.00 C403.68,356.00 403.62,357.29 400.45,360.45 ZM 251.54 404.25 C250.40,409.67 246.12,406.92 243.29,398.95 C240.78,391.90 238.54,392.27 239.30,399.61 L 239.88 405.23 L 236.81 404.61 C235.13,404.28 233.36,404.00 232.88,404.00 C231.18,404.00 232.02,401.23 233.87,400.74 C235.29,400.37 235.90,398.94 236.42,394.77 C236.80,391.75 236.81,388.09 236.45,386.64 C235.97,384.75 236.17,384.00 237.14,384.01 C241.23,384.05 242.76,385.44 245.49,391.57 C247.07,395.11 248.67,398.00 249.05,398.00 C250.20,398.00 251.01,390.61 249.97,389.57 C248.20,387.80 248.96,387.00 252.44,387.00 C256.50,387.00 257.77,388.46 255.75,390.81 C254.45,392.33 253.20,396.33 251.54,404.25 ZM 182.41 377.10 C180.29,379.44 179.22,379.47 175.88,377.24 C174.45,376.29 171.41,374.26 169.13,372.74 C165.07,370.02 163.64,367.00 166.41,367.00 C168.25,367.00 175.00,357.57 175.00,355.00 C175.00,352.99 177.40,352.22 178.44,353.90 C178.75,354.40 181.50,356.47 184.57,358.50 C191.03,362.79 191.91,364.33 189.47,367.04 C187.01,369.75 186.00,369.49 186.00,366.15 C186.00,363.34 183.40,360.00 181.21,360.00 C179.79,360.00 177.71,363.73 178.45,364.93 C178.76,365.41 179.90,365.58 181.00,365.29 C183.42,364.66 183.50,365.31 181.38,368.54 C179.59,371.28 178.00,371.76 178.00,369.56 C178.00,367.45 176.13,366.65 174.46,368.04 C172.61,369.57 172.56,373.00 174.38,373.00 C175.14,373.00 176.31,373.67 176.98,374.48 C177.90,375.58 178.69,375.70 180.13,374.93 C182.98,373.41 184.47,374.82 182.41,377.10 ZM 425.43 331.47 C423.50,334.41 421.37,334.75 420.58,332.24 C420.27,331.28 418.00,327.79 415.52,324.49 C410.63,317.98 410.38,317.22 412.25,314.70 C413.34,313.23 414.30,313.14 419.82,314.04 C423.30,314.60 427.73,315.13 429.66,315.20 C433.58,315.35 434.92,317.18 432.90,319.62 C432.17,320.50 431.11,322.13 430.54,323.24 C429.13,325.99 427.57,325.99 427.18,323.25 C426.77,320.33 425.62,320.40 423.62,323.46 C421.43,326.80 421.57,328.35 424.00,327.71 C426.80,326.98 427.38,328.50 425.43,331.47 ZM 278.00 408.05 C278.00,408.57 275.94,409.00 273.42,409.00 C270.90,409.00 269.00,408.66 269.20,408.25 C272.09,402.28 274.96,395.66 275.93,392.70 C276.96,389.60 277.61,389.00 279.96,389.00 C282.18,389.00 283.02,389.67 284.06,392.25 C284.77,394.04 286.63,398.17 288.18,401.43 C289.73,404.69 291.00,407.72 291.00,408.18 C291.00,408.63 288.52,409.00 285.50,409.00 C280.01,409.00 278.53,407.92 281.64,406.18 C283.97,404.88 282.41,403.00 279.00,403.00 C275.59,403.00 274.03,404.88 276.36,406.18 C277.26,406.69 278.00,407.53 278.00,408.05 ZM 149.24 350.81 C149.76,353.79 147.29,352.95 144.18,349.08 C140.39,344.36 140.33,344.01 143.25,343.97 C146.59,343.93 154.51,336.76 153.66,334.55 C153.15,333.23 152.33,332.95 150.41,333.43 C148.35,333.95 147.90,333.74 148.17,332.41 C148.35,331.49 149.41,330.13 150.53,329.40 C152.40,328.15 153.07,328.63 159.28,335.58 C162.97,339.72 166.00,343.52 166.00,344.03 C166.00,345.35 161.07,348.40 160.26,347.59 C159.88,347.22 160.05,346.14 160.63,345.20 C161.80,343.31 161.37,341.00 159.85,341.00 C157.98,341.00 148.99,349.32 149.24,350.81 ZM 320.42 404.39 C318.11,405.28 311.00,405.13 311.00,404.20 C311.00,403.76 311.43,402.97 311.95,402.45 C312.55,401.85 312.32,399.18 311.32,395.20 C310.11,390.43 309.34,388.98 308.12,389.21 C307.23,389.38 306.36,390.53 306.18,391.76 C305.56,396.09 302.00,393.78 302.00,389.06 C302.00,387.62 303.62,386.95 310.25,385.62 C314.79,384.71 319.45,383.71 320.62,383.40 C322.31,382.95 322.88,383.39 323.43,385.56 C324.21,388.67 322.47,391.38 321.43,388.67 C321.06,387.73 319.70,387.00 318.28,387.00 C316.06,387.00 315.86,387.31 316.45,389.75 C318.45,398.06 319.24,400.16 320.55,400.66 C322.48,401.40 322.40,403.63 320.42,404.39 ZM 443.81 297.25 C442.65,301.36 440.66,302.10 439.01,299.02 C437.78,296.71 428.20,293.60 425.51,294.63 C423.91,295.25 423.79,294.91 424.45,291.43 C424.85,289.29 425.64,286.67 426.21,285.61 C427.23,283.71 427.28,283.71 428.87,285.73 C430.49,287.76 439.06,292.00 441.56,292.00 C443.34,292.00 444.29,288.58 443.50,284.98 C442.80,281.82 444.05,281.11 447.00,282.98 C448.32,283.82 448.28,284.50 446.68,288.72 C445.68,291.35 444.39,295.19 443.81,297.25 ZM 216.34 290.25 L 215.70 294.28 L 218.77 292.01 L 221.85 289.74 L 224.67 291.96 C227.02,293.81 227.55,293.93 227.81,292.65 C227.99,291.80 227.67,290.24 227.10,289.19 C226.28,287.66 226.57,286.82 228.51,284.99 C231.39,282.28 230.93,281.00 227.07,281.00 C224.74,281.00 224.15,280.48 223.65,278.00 C223.32,276.35 222.64,275.00 222.15,275.00 C221.65,275.00 220.68,276.35 220.00,278.00 C219.03,280.33 218.13,281.00 215.94,281.00 C212.08,281.00 211.42,282.58 214.46,284.57 C216.70,286.03 216.91,286.69 216.34,290.25 ZM 113.27 292.06 C112.40,295.39 110.47,294.20 108.69,289.25 C106.47,283.05 106.53,282.66 109.56,283.42 C113.29,284.36 122.73,281.15 123.36,278.74 C124.12,275.81 126.04,277.08 127.59,281.54 C129.52,287.07 129.40,288.26 126.99,287.50 C123.79,286.48 113.87,289.78 113.27,292.06 ZM 348.04 394.98 C342.67,397.72 340.59,397.65 341.38,394.75 C342.27,391.44 339.03,381.82 336.82,381.24 C333.95,380.49 334.69,378.52 338.53,376.69 C343.71,374.22 344.81,374.49 344.76,378.25 C344.72,382.53 348.50,391.00 350.46,391.00 C353.24,391.00 352.07,392.92 348.04,394.98 ZM 369.43 377.60 C373.25,380.28 376.85,377.52 375.67,372.82 C374.08,366.48 367.99,362.90 364.98,366.52 C363.95,367.77 364.05,368.79 365.54,372.10 C366.55,374.32 368.30,376.80 369.43,377.60 ZM 209.25 382.85 C210.93,384.53 212.79,384.26 213.92,382.15 C214.99,380.16 213.65,378.00 211.34,378.00 C209.37,378.00 207.87,381.47 209.25,382.85 ZM 277.00 398.06 C277.00,399.33 277.69,400.00 279.00,400.00 C281.11,400.00 281.55,398.42 280.10,396.12 C278.96,394.33 277.00,395.56 277.00,398.06 ZM 417.69 322.21 C419.24,323.92 419.45,323.94 420.31,322.42 C421.27,320.70 419.78,319.05 417.25,319.02 C415.54,318.99 415.68,319.99 417.69,322.21 ZM 240.05 217.17 C247.95,217.76 259.61,218.92 272.04,220.30 L 272.04 220.30 C279.48,221.15 287.15,222.08 294.50,223.02 C276.63,220.78 256.30,218.56 240.05,217.17 ZM 281.08 97.24 C273.25,96.97 262.58,97.82 253.50,99.50 C250.72,100.02 246.61,100.99 242.65,102.01 C243.09,101.88 243.54,101.75 244.00,101.62 C254.61,98.56 270.01,96.79 281.08,97.24 ZM 265.54 152.82 C265.01,152.97 264.45,153.13 263.87,153.29 C263.58,153.37 263.29,153.44 263.00,153.52 C259.17,154.53 253.43,155.99 248.48,157.20 C249.98,156.81 251.50,156.41 253.00,156.01 C257.72,154.75 262.80,153.46 265.54,152.82 ZM 353.50 348.22 C349.70,350.77 340.67,354.25 328.98,357.86 C340.37,354.26 349.99,350.57 353.50,348.22 ZM 150.44 264.37 C153.29,263.93 157.60,263.70 164.11,263.54 C158.41,263.77 153.41,264.05 150.44,264.37 ZM 243.54 122.51 C246.68,122.76 250.54,123.10 255.03,123.51 C256.44,123.64 257.86,123.78 259.27,123.92 C261.89,124.18 264.62,124.45 267.30,124.71 C265.16,124.51 262.90,124.29 260.50,124.07 C253.80,123.44 248.22,122.92 243.54,122.51 ZM 322.44 134.01 C323.78,132.91 321.43,132.18 314.31,130.72 L 314.41 130.74 C318.69,131.61 321.93,132.42 322.84,132.93 C323.28,133.18 323.16,133.53 322.44,134.01 ZM 279.05 125.83 C282.86,126.22 286.85,126.62 291.00,127.06 C292.65,127.23 294.46,127.45 296.35,127.70 C296.52,127.73 296.68,127.75 296.85,127.77 C291.91,127.15 285.62,126.48 276.42,125.58 C277.33,125.67 278.21,125.75 279.05,125.83 ZM 156.69 170.73 C157.01,170.47 157.32,170.26 157.65,170.12 C159.14,169.43 162.67,168.78 167.30,168.26 C162.71,168.79 159.01,169.47 157.69,170.19 ZM 296.33 334.88 C293.70,335.49 290.26,336.34 286.92,337.19 C287.16,337.13 287.41,337.07 287.66,337.00 C291.36,336.03 294.94,335.15 297.44,334.60 C297.07,334.70 296.70,334.79 296.33,334.88 ZM 145.09 267.53 C145.26,266.64 145.68,265.95 146.68,265.41 C145.89,265.99 145.34,266.74 145.09,267.53 ZM 252.39 314.59 C253.74,314.71 255.94,314.95 258.75,315.28 C256.46,315.02 254.31,314.79 252.39,314.59 ZM 272.65 150.46 C272.60,150.49 272.55,150.51 272.50,150.53 C272.33,150.60 272.14,150.68 271.94,150.76 C272.13,150.68 272.37,150.58 272.65,150.46 ZM 295.80 366.66 C295.00,366.84 294.21,367.01 293.41,367.19 C294.16,367.02 294.97,366.84 295.80,366.66 Z" fill="rgb(219,54,57)"/>
<path d="M 0.00 223.50 L 0.00 0.00 L 279.00 0.00 L 558.00 0.00 L 558.00 223.50 L 558.00 447.00 L 279.00 447.00 L 0.00 447.00 L 0.00 223.50 ZM 278.00 408.05 C278.00,407.53 277.26,406.69 276.36,406.18 C274.03,404.88 275.59,403.00 279.00,403.00 C282.41,403.00 283.97,404.88 281.64,406.18 C278.53,407.92 280.01,409.00 285.50,409.00 C288.52,409.00 291.00,408.63 291.00,408.18 C291.00,407.72 289.73,404.69 288.18,401.43 C286.63,398.17 284.77,394.04 284.06,392.25 C283.02,389.67 282.18,389.00 279.96,389.00 C277.61,389.00 276.96,389.60 275.93,392.70 C274.96,395.66 272.09,402.28 269.20,408.25 C269.00,408.66 270.90,409.00 273.42,409.00 C275.94,409.00 278.00,408.57 278.00,408.05 ZM 251.54 404.25 C253.20,396.33 254.45,392.33 255.75,390.81 C257.77,388.46 256.50,387.00 252.44,387.00 C248.96,387.00 248.20,387.80 249.97,389.57 C251.01,390.61 250.20,398.00 249.05,398.00 C248.67,398.00 247.07,395.11 245.49,391.57 C242.76,385.44 241.23,384.05 237.14,384.01 C236.17,384.00 235.97,384.75 236.45,386.64 C236.81,388.09 236.80,391.75 236.42,394.77 C235.90,398.94 235.29,400.37 233.87,400.74 C232.02,401.23 231.18,404.00 232.88,404.00 C233.36,404.00 235.13,404.28 236.81,404.61 L 239.88 405.23 L 239.30 399.61 C238.54,392.27 240.78,391.90 243.29,398.95 C246.12,406.92 250.40,409.67 251.54,404.25 ZM 320.42 404.39 C322.40,403.63 322.48,401.40 320.55,400.66 C319.24,400.16 318.45,398.06 316.45,389.75 C315.86,387.31 316.06,387.00 318.28,387.00 C319.70,387.00 321.06,387.73 321.43,388.67 C322.47,391.38 324.21,388.67 323.43,385.56 C322.88,383.39 322.31,382.95 320.62,383.40 C319.45,383.71 314.79,384.71 310.25,385.62 C303.62,386.95 302.00,387.62 302.00,389.06 C302.00,393.78 305.56,396.09 306.18,391.76 C306.36,390.53 307.23,389.38 308.12,389.21 C309.34,388.98 310.11,390.43 311.32,395.20 C312.32,399.18 312.55,401.85 311.95,402.45 C311.43,402.97 311.00,403.76 311.00,404.20 C311.00,405.13 318.11,405.28 320.42,404.39 ZM 216.80 396.80 C217.46,396.14 218.00,394.96 218.00,394.18 C218.00,393.06 217.70,393.01 216.57,393.94 C215.38,394.93 215.08,394.56 214.82,391.82 C214.55,389.07 215.02,388.15 217.49,386.46 C223.29,382.52 221.90,379.30 212.50,374.84 C205.00,371.29 202.75,371.15 203.53,374.28 C204.17,376.80 199.70,385.80 197.37,386.69 C196.62,386.98 196.00,387.83 196.00,388.57 C196.00,390.18 198.29,391.50 202.74,392.46 C205.89,393.14 205.96,393.07 205.40,390.27 C204.78,387.13 206.71,384.58 208.75,385.85 C209.67,386.41 209.67,387.46 208.76,390.41 C207.68,393.95 207.77,394.40 209.90,396.12 C212.57,398.28 215.07,398.53 216.80,396.80 ZM 348.04 394.98 C352.07,392.92 353.24,391.00 350.46,391.00 C348.50,391.00 344.72,382.53 344.76,378.25 C344.81,374.49 343.71,374.22 338.53,376.69 C334.69,378.52 333.95,380.49 336.82,381.24 C339.03,381.82 342.27,391.44 341.38,394.75 C340.59,397.65 342.67,397.72 348.04,394.98 ZM 375.77 380.00 C381.74,376.36 382.42,369.14 377.30,363.79 C373.65,359.98 367.47,359.89 363.08,363.59 C360.35,365.88 360.00,366.78 360.00,371.52 C360.00,376.35 360.31,377.10 363.25,379.42 C367.17,382.51 371.34,382.70 375.77,380.00 ZM 182.41 377.10 C184.47,374.82 182.98,373.41 180.13,374.93 C178.69,375.70 177.90,375.58 176.98,374.48 C176.31,373.67 175.14,373.00 174.38,373.00 C172.56,373.00 172.61,369.57 174.46,368.04 C176.13,366.65 178.00,367.45 178.00,369.56 C178.00,371.76 179.59,371.28 181.38,368.54 C183.50,365.31 183.42,364.66 181.00,365.29 C179.90,365.58 178.76,365.41 178.45,364.93 C177.71,363.73 179.79,360.00 181.21,360.00 C183.40,360.00 186.00,363.34 186.00,366.15 C186.00,369.49 187.01,369.75 189.47,367.04 C191.91,364.33 191.03,362.79 184.57,358.50 C181.50,356.47 178.75,354.40 178.44,353.90 C177.40,352.22 175.00,352.99 175.00,355.00 C175.00,357.57 168.25,367.00 166.41,367.00 C163.64,367.00 165.07,370.02 169.13,372.74 C171.41,374.26 174.45,376.29 175.88,377.24 C179.22,379.47 180.29,379.44 182.41,377.10 ZM 292.30 367.44 C319.87,361.37 346.23,353.10 353.50,348.22 C359.90,343.92 374.15,331.47 378.50,326.37 C380.70,323.79 382.95,321.18 383.50,320.59 C388.39,315.27 399.00,299.16 399.00,297.05 C399.00,295.81 397.08,294.42 392.75,292.54 C386.00,289.59 363.34,283.70 352.31,282.02 C338.77,279.96 337.82,279.02 346.75,276.54 C356.60,273.81 365.46,270.82 366.45,269.89 C366.97,269.40 368.21,269.00 369.21,269.00 C371.31,269.00 396.83,259.39 398.57,257.94 C399.21,257.41 402.42,255.63 405.70,253.99 C408.97,252.36 412.25,249.91 412.97,248.55 C414.58,245.55 413.76,216.56 411.76,205.60 L 410.50 198.70 L 401.99 195.43 C392.70,191.86 375.52,187.94 356.00,184.94 C349.12,183.88 341.58,182.46 339.23,181.78 L 334.97 180.55 L 343.23 177.68 C359.37,172.08 364.58,170.13 371.00,167.32 C378.52,164.02 389.00,157.47 389.00,156.06 C389.00,152.10 371.91,133.71 359.91,124.76 C343.83,112.76 335.49,109.54 311.50,106.01 C301.05,104.48 291.38,102.74 290.00,102.16 L 287.50 101.10 L 289.75 100.43 C293.89,99.21 292.07,98.18 284.50,97.47 C273.38,96.43 255.75,98.23 244.00,101.62 C229.00,105.95 222.85,108.13 216.03,111.55 C206.65,116.26 198.00,121.77 198.00,123.03 C198.00,124.47 204.07,124.21 212.79,122.40 C221.35,120.63 225.42,120.77 260.50,124.07 C293.96,127.21 300.89,128.04 311.46,130.15 C325.19,132.89 325.55,133.25 317.38,136.23 C310.23,138.84 292.94,144.31 280.00,148.06 C275.88,149.26 272.05,150.58 271.50,151.00 C270.95,151.42 268.92,152.09 267.00,152.49 C265.08,152.89 258.77,154.47 253.00,156.01 C241.15,159.17 228.70,162.09 225.59,162.45 C224.44,162.58 222.60,162.98 221.50,163.33 C215.46,165.26 201.02,166.97 190.50,167.00 C176.45,167.04 161.23,168.48 157.65,170.12 C155.83,170.94 154.17,173.53 151.71,179.38 C146.95,190.72 146.40,192.36 144.04,202.26 C140.65,216.52 140.38,220.07 142.53,221.65 C145.44,223.77 159.27,223.29 174.18,220.56 C207.06,214.53 205.24,214.66 230.34,216.41 C266.81,218.95 339.27,228.19 337.31,230.05 C336.16,231.14 312.89,238.21 297.50,242.15 C295.30,242.71 292.60,243.58 291.50,244.08 C287.79,245.77 276.66,249.03 272.56,249.63 C270.33,249.96 264.45,251.36 259.50,252.75 C254.55,254.15 246.23,256.07 241.00,257.02 C235.77,257.98 226.88,259.72 221.23,260.88 C212.38,262.70 206.82,263.03 180.73,263.30 C147.40,263.63 145.00,264.00 145.00,268.82 C145.00,274.63 154.37,296.90 161.06,307.00 C161.61,307.83 162.83,309.72 163.77,311.20 C164.71,312.69 166.52,314.16 167.78,314.48 C171.20,315.34 190.15,314.11 201.01,312.34 C208.98,311.03 212.45,310.96 222.51,311.92 C229.10,312.55 240.12,313.52 247.00,314.08 C253.88,314.64 269.17,316.43 281.00,318.05 C292.83,319.67 304.52,321.23 307.00,321.53 C314.87,322.47 326.96,325.25 326.50,326.01 C326.25,326.41 324.15,327.04 321.83,327.41 C316.96,328.19 308.62,330.80 305.00,332.69 C303.62,333.40 301.73,333.99 300.78,333.99 C299.83,334.00 293.93,335.35 287.66,337.00 C281.39,338.65 274.99,340.00 273.43,340.00 C271.88,340.00 264.95,341.32 258.05,342.94 C251.15,344.56 242.57,346.35 239.00,346.92 C235.43,347.49 230.13,348.44 227.23,349.03 C224.33,349.62 218.48,350.41 214.23,350.80 L 206.50 351.50 L 212.02 354.63 C221.21,359.84 231.89,363.97 244.00,367.00 C264.48,372.14 270.70,372.19 292.30,367.44 ZM 400.45 360.45 C403.62,357.29 403.68,356.00 400.67,356.00 C399.40,356.00 397.27,354.86 395.96,353.46 L 393.57 350.92 L 401.76 351.60 C408.95,352.20 410.03,352.07 410.61,350.58 C411.08,349.34 409.70,347.37 405.63,343.50 C402.34,340.36 400.00,337.27 400.00,336.06 C400.00,333.24 398.88,333.47 395.50,337.00 L 392.63 340.00 L 395.56 340.03 C398.46,340.06 402.97,344.36 401.58,345.76 C401.24,346.10 398.16,345.89 394.73,345.30 C388.85,344.28 388.37,344.35 386.13,346.51 C383.71,348.84 383.93,351.35 386.47,350.37 C388.06,349.76 397.25,358.79 396.41,360.15 C395.90,360.96 396.69,363.00 397.51,363.00 C397.73,363.00 399.05,361.85 400.45,360.45 ZM 149.24 350.81 C148.99,349.32 157.98,341.00 159.85,341.00 C161.37,341.00 161.80,343.31 160.63,345.20 C160.05,346.14 159.88,347.22 160.26,347.59 C161.07,348.40 166.00,345.35 166.00,344.03 C166.00,343.52 162.97,339.72 159.28,335.58 C153.07,328.63 152.40,328.15 150.53,329.40 C149.41,330.13 148.35,331.49 148.17,332.41 C147.90,333.74 148.35,333.95 150.41,333.43 C152.33,332.95 153.15,333.23 153.66,334.55 C154.51,336.76 146.59,343.93 143.25,343.97 C140.33,344.01 140.39,344.36 144.18,349.08 C147.29,352.95 149.76,353.79 149.24,350.81 ZM 425.43 331.47 C427.38,328.50 426.80,326.98 424.00,327.71 C421.57,328.35 421.43,326.80 423.62,323.46 C425.62,320.40 426.77,320.33 427.18,323.25 C427.57,325.99 429.13,325.99 430.54,323.24 C431.11,322.13 432.17,320.50 432.90,319.62 C434.92,317.18 433.58,315.35 429.66,315.20 C427.73,315.13 423.30,314.60 419.82,314.04 C414.30,313.14 413.34,313.23 412.25,314.70 C410.38,317.22 410.63,317.98 415.52,324.49 C418.00,327.79 420.27,331.28 420.58,332.24 C421.37,334.75 423.50,334.41 425.43,331.47 ZM 142.80 318.66 C145.52,319.37 145.56,318.43 142.98,314.20 C141.05,311.03 139.00,310.65 139.00,313.46 C139.00,314.20 137.39,315.75 135.43,316.91 L 131.86 319.01 L 132.56 316.76 C132.94,315.52 134.33,312.36 135.65,309.74 C137.91,305.25 137.95,304.85 136.40,302.49 C134.60,299.74 133.00,299.23 133.00,301.40 C133.00,303.53 124.00,308.39 120.25,308.29 C116.55,308.19 116.20,309.40 118.92,312.93 L 120.79 315.37 L 123.97 312.18 C129.06,307.09 130.15,308.05 127.30,315.10 C125.76,318.92 125.07,322.13 125.45,323.66 L 126.06 326.10 L 133.33 322.09 C138.22,319.40 141.32,318.27 142.80,318.66 ZM 443.81 297.25 C444.39,295.19 445.68,291.35 446.68,288.72 C448.28,284.50 448.32,283.82 447.00,282.98 C444.05,281.11 442.80,281.82 443.50,284.98 C444.29,288.58 443.34,292.00 441.56,292.00 C439.06,292.00 430.49,287.76 428.87,285.73 C427.28,283.71 427.23,283.71 426.21,285.61 C425.64,286.67 424.85,289.29 424.45,291.43 C423.79,294.91 423.91,295.25 425.51,294.63 C428.20,293.60 437.78,296.71 439.01,299.02 C440.66,302.10 442.65,301.36 443.81,297.25 ZM 113.27 292.06 C113.87,289.78 123.79,286.48 126.99,287.50 C129.40,288.26 129.52,287.07 127.59,281.54 C126.04,277.08 124.12,275.81 123.36,278.74 C122.73,281.15 113.29,284.36 109.56,283.42 C106.53,282.66 106.47,283.05 108.69,289.25 C110.47,294.20 112.40,295.39 113.27,292.06 ZM 211.75 91.04 C217.88,88.14 220.12,85.00 216.06,85.00 C213.92,85.00 211.00,81.49 211.00,78.93 C211.00,77.95 212.68,76.64 215.25,75.62 C219.40,73.99 219.54,74.00 221.25,76.08 C223.38,78.69 223.47,80.82 221.55,82.94 C220.62,83.97 220.42,85.05 220.98,85.96 C221.70,87.14 223.03,86.83 228.68,84.22 C235.70,80.96 237.81,78.41 233.95,77.83 C232.26,77.57 230.94,75.48 227.97,68.33 C224.62,60.27 224.33,58.94 225.55,57.33 C227.78,54.39 227.25,53.73 223.25,54.47 C214.09,56.15 207.85,60.94 213.69,61.80 C215.83,62.12 218.00,65.76 218.00,69.03 C218.00,71.53 211.38,74.56 209.44,72.95 C207.03,70.95 205.96,66.18 207.56,64.59 C211.80,60.34 207.15,60.14 197.21,64.14 C191.74,66.34 190.86,68.28 195.08,68.80 C197.12,69.05 198.11,70.60 201.38,78.58 C205.07,87.62 205.17,88.15 203.53,89.97 C201.77,91.92 202.17,94.00 204.31,94.00 C204.96,94.00 208.31,92.67 211.75,91.04 ZM 351.79 92.75 C352.36,92.06 353.14,89.81 353.52,87.75 C354.09,84.73 353.92,84.00 352.68,84.00 C351.83,84.00 350.85,84.90 350.50,86.00 C350.12,87.21 349.00,87.99 347.68,87.98 C345.42,87.96 337.00,84.49 337.00,83.58 C337.00,83.30 337.77,81.46 338.70,79.50 C340.60,75.51 343.10,75.19 343.96,78.81 C344.26,80.08 344.95,81.19 345.50,81.28 C346.38,81.42 350.79,73.71 350.94,71.75 C351.04,70.48 348.75,70.92 347.01,72.49 C345.65,73.72 345.05,73.76 343.60,72.70 C341.92,71.47 341.92,71.24 343.60,67.70 C345.64,63.43 346.60,63.25 352.10,66.05 C355.67,67.87 356.08,68.45 355.81,71.30 C355.56,73.88 355.87,74.50 357.40,74.50 C358.71,74.50 359.72,73.30 360.64,70.63 C361.37,68.51 361.77,66.44 361.52,66.03 C361.27,65.63 358.91,64.50 356.28,63.53 C353.65,62.56 347.97,60.20 343.65,58.28 C337.83,55.70 335.51,55.09 334.68,55.92 C333.84,56.76 333.85,57.54 334.72,58.93 C336.19,61.27 334.96,66.14 330.87,74.25 C328.81,78.35 327.40,80.00 325.99,80.00 C321.49,80.00 324.37,82.96 331.75,85.93 C336.01,87.65 341.75,90.14 344.50,91.47 C350.45,94.34 350.47,94.34 351.79,92.75 ZM 269.80 75.03 C275.11,71.18 276.00,69.35 276.00,62.32 C275.99,52.36 270.74,47.00 261.00,47.00 C255.14,47.00 250.57,49.26 247.60,53.64 C237.97,67.82 255.90,85.10 269.80,75.03 ZM 302.00 76.62 C302.00,75.86 301.33,74.68 300.50,74.00 C299.67,73.32 299.00,71.69 299.00,70.38 C299.00,68.09 299.27,68.00 306.50,68.00 C312.63,68.00 314.36,67.64 315.97,66.03 C320.02,61.98 319.97,54.79 315.88,51.75 C313.12,49.70 290.72,45.94 289.37,47.30 C288.99,47.68 289.51,48.91 290.53,50.03 C292.25,51.93 292.29,52.69 291.08,61.28 C289.77,70.67 288.83,73.00 286.38,73.00 C284.66,73.00 284.58,74.62 286.25,75.66 C287.71,76.56 294.10,77.70 298.75,77.87 C300.90,77.96 302.00,77.54 302.00,76.62 ZM 277.00 398.06 C277.00,395.56 278.96,394.33 280.10,396.12 C281.55,398.42 281.11,400.00 279.00,400.00 C277.69,400.00 277.00,399.33 277.00,398.06 ZM 209.25 382.85 C207.87,381.47 209.37,378.00 211.34,378.00 C213.65,378.00 214.99,380.16 213.92,382.15 C212.79,384.26 210.93,384.53 209.25,382.85 ZM 369.43 377.60 C368.30,376.80 366.55,374.32 365.54,372.10 C364.05,368.79 363.95,367.77 364.98,366.52 C367.99,362.90 374.08,366.48 375.67,372.82 C376.85,377.52 373.25,380.28 369.43,377.60 ZM 216.34 290.25 C216.91,286.69 216.70,286.03 214.46,284.57 C211.42,282.58 212.08,281.00 215.94,281.00 C218.13,281.00 219.03,280.33 220.00,278.00 C220.68,276.35 221.65,275.00 222.15,275.00 C222.64,275.00 223.32,276.35 223.65,278.00 C224.15,280.48 224.74,281.00 227.07,281.00 C230.93,281.00 231.39,282.28 228.51,284.99 C226.57,286.82 226.28,287.66 227.10,289.19 C227.67,290.24 227.99,291.80 227.81,292.65 C227.55,293.93 227.02,293.81 224.67,291.96 L 221.85 289.74 L 218.77 292.01 L 215.70 294.28 L 216.34 290.25 ZM 269.76 282.43 C269.46,282.13 269.70,280.33 270.28,278.43 C271.25,275.27 271.10,274.71 268.49,271.98 L 265.63 269.00 L 269.19 269.00 C273.10,269.00 274.39,267.91 275.38,263.75 C276.29,259.94 277.43,260.31 279.27,265.00 C280.76,268.81 281.05,269.00 285.17,269.01 L 289.50 269.02 L 286.25 271.58 C282.91,274.21 282.24,276.72 284.00,280.01 C285.50,282.81 283.61,283.27 280.53,280.85 L 277.83 278.72 L 274.06 280.84 C271.99,282.01 270.05,282.72 269.76,282.43 ZM 321.61 265.29 C321.98,263.76 322.66,261.74 323.14,260.82 C324.41,258.34 324.36,258.27 319.81,255.26 L 315.61 252.50 L 321.03 252.00 C326.31,251.51 326.47,251.41 327.51,247.69 C328.83,242.97 330.04,242.59 331.30,246.50 C332.82,251.19 333.91,252.00 338.87,252.03 L 343.50 252.06 L 340.89 254.28 C339.46,255.50 337.52,256.95 336.59,257.50 C335.02,258.42 335.01,258.83 336.46,262.91 C337.32,265.33 337.81,267.52 337.55,267.78 C337.30,268.04 335.68,267.07 333.97,265.62 C330.69,262.86 328.53,262.33 327.50,264.01 C327.15,264.56 325.54,265.70 323.91,266.55 L 320.94 268.08 L 321.61 265.29 ZM 374.00 254.72 C374.00,254.49 374.90,251.70 376.00,248.50 C377.10,245.30 378.00,242.19 377.99,241.59 C377.98,240.99 375.75,238.93 373.04,237.00 C370.32,235.07 368.07,232.96 368.05,232.30 C368.02,231.50 370.27,230.99 374.69,230.80 L 381.38 230.50 L 383.47 225.31 C384.61,222.45 385.81,219.85 386.13,219.54 C386.45,219.22 387.51,221.10 388.50,223.73 C391.11,230.72 391.50,231.00 398.62,231.00 C406.50,231.00 406.79,232.25 399.97,236.87 C397.24,238.73 395.00,240.82 395.00,241.51 C395.00,242.20 395.74,245.08 396.66,247.90 C397.57,250.72 398.07,253.27 397.76,253.57 C397.46,253.87 394.79,252.56 391.83,250.67 C386.65,247.35 386.32,247.28 383.47,248.73 C381.84,249.56 379.60,251.02 378.50,251.97 C376.20,253.96 374.00,255.30 374.00,254.72 ZM 417.69 322.21 C415.68,319.99 415.54,318.99 417.25,319.02 C419.78,319.05 421.27,320.70 420.31,322.42 C419.45,323.94 419.24,323.92 417.69,322.21 ZM 257.62 73.14 C253.93,69.06 252.73,57.25 255.60,53.17 C256.85,51.38 257.97,50.96 260.85,51.20 C263.89,51.45 264.79,52.09 266.25,55.00 C267.31,57.12 268.00,60.78 268.00,64.30 C268.00,69.12 267.59,70.50 265.55,72.55 C262.62,75.48 259.92,75.68 257.62,73.14 ZM 302.25 63.33 C300.95,62.81 300.55,57.34 301.61,54.58 C302.32,52.71 307.06,52.46 308.80,54.20 C312.49,57.89 307.19,65.28 302.25,63.33 Z" fill="rgb(253,253,253)"/>
</g>
</svg>